<svg xmlns="http://www.w3.org/2000/svg" width="34.015" height="34.014" viewBox="0 0 34.015 34.014"><g transform="translate(0 -0.008)"><g transform="translate(0 0.008)"><path d="M27.33,324.493,11.447,336.83h32.5L28.059,324.493A.583.583,0,0,0,27.33,324.493Z" transform="translate(-10.687 -302.816)"/><path d="M231.612.135a.582.582,0,0,0-.725,0l-1.4,1.087h3.523Z" transform="translate(-214.24 -0.008)"/><path d="M24.044,55.557a.607.607,0,1,1-.745-.96l10.13-7.866L29.156,43.41V48.1a.607.607,0,1,1-1.215,0V37.17a.607.607,0,0,0-.607-.607H6.682a.607.607,0,0,0-.607.607V48.1a.607.607,0,1,1-1.215,0V43.41L.586,46.731,10.7,54.583a.608.608,0,0,1-.745.96L0,47.814V67.2L15.9,54.852a1.8,1.8,0,0,1,2.215,0L34.015,67.2V47.814Zm-4.581-7.8a3.645,3.645,0,1,1-2.456-6.33.607.607,0,1,1,0,1.215,2.43,2.43,0,1,0,2.43,2.43.607.607,0,1,1,1.215,0V47.5a1.215,1.215,0,0,0,2.43,0v-2.43a6.074,6.074,0,1,0-6.074,6.074.607.607,0,0,1,0,1.215A7.289,7.289,0,1,1,24.3,45.067V47.5a2.423,2.423,0,0,1-4.833.256Z" transform="translate(0 -34.134)"/></g></g></svg>