<svg xmlns="http://www.w3.org/2000/svg" xmlns:xlink="http://www.w3.org/1999/xlink" width="312.31" height="292.068" viewBox="0 0 312.31 292.068"><defs><style>.a,.d{fill:none;}.b{fill:#68e1fd;}.c,.j,.k,.l,.m{opacity:0.81;}.c{fill:url(#a);}.d{opacity:0.17;}.e{fill:url(#b);}.f{fill:url(#c);}.g{fill:url(#d);}.h{fill:url(#e);}.i{fill:url(#f);}.j{fill:url(#g);}.k{fill:url(#h);}.l{fill:url(#i);}.m{fill:url(#j);}.n,.o,.p,.q,.r{opacity:0.19;}.n{fill:url(#k);}.o{fill:url(#l);}.p{fill:url(#m);}.q{fill:url(#n);}.r{fill:url(#o);}</style><linearGradient id="a" x1="0.512" y1="-0.722" x2="0.493" y2="1.168" gradientUnits="objectBoundingBox"><stop offset="0"/><stop offset="0.97" stop-opacity="0.102"/></linearGradient><linearGradient id="b" y1="0.5" x2="1" y2="0.5" gradientUnits="objectBoundingBox"><stop offset="0" stop-color="#ecc4d7"/><stop offset="0.42" stop-color="#efd4d1"/><stop offset="1" stop-color="#f2eac9"/></linearGradient><linearGradient id="c" x1="0" y1="0.5" x2="1" y2="0.5" xlink:href="#b"/><linearGradient id="d" x1="0" y1="0.5" x2="1" y2="0.5" xlink:href="#b"/><linearGradient id="e" x1="0" y1="0.5" x2="1" y2="0.5" xlink:href="#b"/><linearGradient id="f" x1="0" y1="0.5" x2="1" y2="0.5" xlink:href="#b"/><linearGradient id="g" x1="-2.286" y1="0.543" x2="0.552" y2="0.505" xlink:href="#a"/><linearGradient id="h" x1="-1.44" y1="0.54" x2="0.749" y2="0.502" xlink:href="#a"/><linearGradient id="i" x1="-1.667" y1="0.534" x2="0.834" y2="0.5" xlink:href="#a"/><linearGradient id="j" x1="-2.216" y1="0.548" x2="0.945" y2="0.499" xlink:href="#a"/><linearGradient id="k" x1="0.421" y1="0.26" x2="0.672" y2="1.161" gradientUnits="objectBoundingBox"><stop offset="0" stop-color="#183866"/><stop offset="1" stop-color="#1a7fc1"/></linearGradient><linearGradient id="l" x1="0.443" y1="-3.288" x2="0.512" y2="1.269" xlink:href="#k"/><linearGradient id="m" x1="0.398" y1="-6.218" x2="0.467" y2="-1.66" xlink:href="#k"/><linearGradient id="n" x1="0.354" y1="-9.146" x2="0.423" y2="-4.588" xlink:href="#k"/><linearGradient id="o" x1="-1.141" y1="0.499" x2="-1.135" y2="0.499" xlink:href="#k"/></defs><g transform="translate(260.996 244.077)"><path class="a" d="M328.968.164C293.606,3.077,271.8,40.1,239.979,55.816c-14.293,7.065-30.4,9.655-45.058,15.917-24.938,10.645-45.98,35.278-43.728,62.3,2.919,35.023,40.691,56.772,52.563,89.844,3.275,9.129,4.474,18.9,7.851,27.987,8.428,22.676,31.268,39.22,55.431,40.159,19.407.752,37.925-7.591,57.128-10.532,23.507-3.609,47.473.956,71.269.147s49.775-8.9,61.444-29.622c9.446-16.782,7.138-37.688,1.912-56.223s-13.162-36.624-14.22-55.855c-1.222-22.393,6.047-48.191-8.739-65.047-10.973-12.54-31.239-15.5-39.068-30.2-8.45-15.837-11.414-17.947-25.623-27.337C357.091,8.043,347.493-1.363,328.968.164Z" transform="translate(-412.023 -244.077)"/><rect class="b" width="56.793" height="108.053" rx="22.11" transform="translate(-97.035 -156.311)"/><path class="b" d="M514.118,71.007v90.855a6.01,6.01,0,0,1-6.01,6.007H468a6.01,6.01,0,0,1-6-6.007V71.01A6.013,6.013,0,0,1,468.007,65h6.106v.474a3.381,3.381,0,0,0,3.381,3.381h20.812a3.379,3.379,0,0,0,3.381-3.381V65h6.423A6.013,6.013,0,0,1,514.118,71.007Z" transform="translate(-556.694 -219.212)"/><path class="c" d="M514.118,71.007v90.855a6.01,6.01,0,0,1-6.01,6.007H468a6.01,6.01,0,0,1-6-6.007V71.01A6.013,6.013,0,0,1,468.007,65h6.106v.474a3.381,3.381,0,0,0,3.381,3.381h20.812a3.379,3.379,0,0,0,3.381-3.381V65h6.423A6.013,6.013,0,0,1,514.118,71.007Z" transform="translate(-556.694 -219.212)"/><rect class="d" width="38.31" height="13.875" rx="6.937" transform="translate(-86.059 -96.128)"/><rect class="d" width="38.31" height="13.875" rx="6.937" transform="translate(-86.059 -76.606)"/><path class="e" d="M533.955,259.825,520.217,246.66a10.423,10.423,0,0,0-2.867,11.127c2.134,7.167,9.074,15.794,9.074,15.794v19.771s.078,6.432-6.432,6.432H476.06a66.091,66.091,0,0,0,11.63,18.655c7.8,8.566,21.789,19.146,21.19,30.16h38.042s-9.746-34.69-6.4-48.8S542.625,268.126,533.955,259.825Z" transform="translate(-566.666 -348.053)"/><path class="f" d="M444.529,150.375c-1.39-.34-4.873-2.742-7.711-5.309a17.288,17.288,0,0,1-3.931-4.6c-1.506-3.291-1.771-10.5,3.931-9.947,0,0,2.326-.529,7.711,7.5S446.8,150.933,444.529,150.375Z" transform="translate(-535.392 -265.658)"/><path class="g" d="M442.127,200.542c-1.454-.087-5.524-1.928-8.83-4.018a16.58,16.58,0,0,1-4.4-3.64c-2.076-2.966-3.632-10.008,2.079-10.488,0,0,.645-.291,2.326.582a27.768,27.768,0,0,1,6.609,5.405C446.657,195.312,444.471,200.682,442.127,200.542Z" transform="translate(-531.879 -302.442)"/><path class="h" d="M440.518,256.362c-.965-.262-3.172-1.934-5.28-3.946-2.035-1.934-3.957-4.181-4.611-5.789-1.337-3.286-1.745-10.546,2.983-10.112,0,0,.5-.154,1.628.779,1.061.872,2.678,2.733,4.943,6.606C444.853,251.875,442.408,256.87,440.518,256.362Z" transform="translate(-533.811 -340.845)"/><path class="i" d="M445.489,317.773c-1.224-.093-4.783-1.884-7.449-3.8a11.777,11.777,0,0,1-2.841-2.617c-1.628-2.457-2.908-8.257,1.509-8.6,0,0,.375-.169,1.332.265,1.061.48,2.844,1.707,5.62,4.739C448.928,313.519,447.292,317.909,445.489,317.773Z" transform="translate(-536.613 -387.82)"/><rect class="d" width="38.31" height="13.875" rx="6.937" transform="translate(-86.059 -135.17)"/><rect class="d" width="38.31" height="13.875" rx="6.937" transform="translate(-86.059 -115.649)"/><path class="j" d="M436.831,130.517v14.538a17.288,17.288,0,0,1-3.931-4.6C431.405,137.172,431.129,129.964,436.831,130.517Z" transform="translate(-535.404 -265.658)"/><path class="k" d="M433.327,182.983v13.549a16.578,16.578,0,0,1-4.4-3.64c-2.076-2.966-3.632-10.008,2.079-10.488C431,182.4,431.649,182.125,433.327,182.983Z" transform="translate(-531.9 -302.449)"/><path class="l" d="M435.238,237.287v15.119c-2.035-1.934-3.957-4.181-4.611-5.789-1.337-3.286-1.745-10.546,2.983-10.112C433.609,236.508,434.112,236.345,435.238,237.287Z" transform="translate(-533.811 -340.837)"/><path class="m" d="M438.04,303.026v10.95a11.777,11.777,0,0,1-2.841-2.617c-1.628-2.457-2.908-8.257,1.509-8.6C436.708,302.761,437.083,302.593,438.04,303.026Z" transform="translate(-536.613 -387.82)"/><path class="b" d="M271.992,22.326V134.943a6.423,6.423,0,0,1-6.423,6.426H212.123a6.423,6.423,0,0,1-6.423-6.426V22.326a6.423,6.423,0,0,1,6.423-6.426h53.446A6.423,6.423,0,0,1,271.992,22.326Z" transform="translate(-374.915 -184.388)"/><path class="d" d="M222.093,15.9V141.369h-9.97a6.423,6.423,0,0,1-6.423-6.426V22.326a6.423,6.423,0,0,1,6.423-6.426Z" transform="translate(-374.915 -184.388)"/><path class="n" d="M261.987,211.666v20.3a3.259,3.259,0,0,1-3.259,3.259H205.7V208.41h53.028A3.256,3.256,0,0,1,261.987,211.666Z" transform="translate(-374.915 -320.925)"/><rect class="b" width="67.978" height="26.819" rx="11.21" transform="translate(-184.433 -117.402)"/><path class="o" d="M282.3,98.447H239.99a1.55,1.55,0,0,1-1.55-1.547h0a1.55,1.55,0,0,1,1.55-1.55H282.3a1.55,1.55,0,0,1,1.55,1.55h0a1.547,1.547,0,0,1-1.55,1.547Z" transform="translate(-398.135 -240.737)"/><path class="p" d="M282.3,131.187H239.99a1.55,1.55,0,0,1-1.55-1.55h0a1.55,1.55,0,0,1,1.55-1.547H282.3a1.547,1.547,0,0,1,1.55,1.547h0A1.55,1.55,0,0,1,282.3,131.187Z" transform="translate(-398.135 -263.958)"/><path class="q" d="M282.3,163.907H239.99a1.55,1.55,0,0,1-1.55-1.547h0a1.55,1.55,0,0,1,1.55-1.55H282.3a1.55,1.55,0,0,1,1.55,1.55h0a1.547,1.547,0,0,1-1.55,1.547Z" transform="translate(-398.135 -287.164)"/><path class="r" d="M181.75,209.163v12.348a2.393,2.393,0,0,1-2.291,2.39.634.634,0,0,1-.1,0H167.006a2.4,2.4,0,0,1-2.4-2.4V209.163a2.393,2.393,0,0,1,2.4-2.393h12.348a2.393,2.393,0,0,1,2.4,2.393Z" transform="translate(-345.772 -319.761)"/><path class="d" d="M185.1,228.311a6.464,6.464,0,0,1-.273,1.864.631.631,0,0,1-.1,0H172.459a6.472,6.472,0,0,1,4.1-7.984,3.506,3.506,0,1,1,3.687-.145A6.461,6.461,0,0,1,185.1,228.311Z" transform="translate(-351.144 -326.047)"/></g></svg>