<svg xmlns="http://www.w3.org/2000/svg" xmlns:xlink="http://www.w3.org/1999/xlink" width="325.54" height="236.13" viewBox="0 0 325.54 236.13"><defs><style>.a{fill:none;}.b,.c{opacity:0.26;}.b{fill:url(#a);}.c{fill:url(#b);}.d{fill:#fdb386;}.e{fill:url(#c);}.f,.k{fill:#68e1fd;}.g{fill:#1a427b;}.h{fill:url(#d);}.i{fill:url(#e);}.j{fill:url(#f);}.k{opacity:0.13;}.l{fill:url(#g);}.m{fill:url(#h);}.n{fill:url(#i);}.o{fill:url(#j);}.p{fill:url(#k);}.q{fill:url(#l);}.r{fill:url(#m);}.s{fill:url(#n);}.t{fill:url(#o);}.u{fill:url(#p);}.v{fill:url(#q);}</style><linearGradient id="a" x1="0.495" y1="-1.689" x2="0.513" y2="6.48" gradientUnits="objectBoundingBox"><stop offset="0" stop-color="#010101" stop-opacity="0"/><stop offset="0.95" stop-color="#010101"/></linearGradient><linearGradient id="b" x1="0.495" y1="-1.689" x2="0.513" y2="6.479" xlink:href="#a"/><linearGradient id="c" x1="0.675" y1="1.499" x2="0.2" y2="-0.72" xlink:href="#a"/><linearGradient id="d" x1="0.282" y1="0.135" x2="0.578" y2="4.561" xlink:href="#a"/><linearGradient id="e" x1="0.599" y1="0.886" x2="0.382" y2="-0.152" xlink:href="#a"/><linearGradient id="f" x1="0.593" y1="0.561" x2="-0.454" y2="-0.133" xlink:href="#a"/><linearGradient id="g" x1="0.645" y1="0.132" x2="0.245" y2="1.147" xlink:href="#a"/><linearGradient id="h" x1="0.508" y1="0.202" x2="0.435" y2="1.977" xlink:href="#a"/><linearGradient id="i" x1="0.496" y1="-0.532" x2="0.517" y2="5.355" xlink:href="#a"/><linearGradient id="j" x1="0.492" y1="-0.021" x2="0.706" y2="2.901" xlink:href="#a"/><linearGradient id="k" x1="0.127" y1="-0.09" x2="1.521" y2="1.951" xlink:href="#a"/><linearGradient id="l" x1="0.162" y1="-0.308" x2="1.259" y2="2.114" xlink:href="#a"/><linearGradient id="m" x1="0.415" y1="-0.476" x2="0.741" y2="3.301" xlink:href="#a"/><linearGradient id="n" x1="0.796" y1="-0.185" x2="-0.365" y2="1.887" xlink:href="#a"/><linearGradient id="o" x1="-0.761" y1="0.307" x2="1.605" y2="0.67" xlink:href="#a"/><linearGradient id="p" x1="0.5" y1="-1.069" x2="0.5" y2="1.444" xlink:href="#a"/><linearGradient id="q" y1="0.5" x2="1" y2="0.5" gradientUnits="objectBoundingBox"><stop offset="0" stop-color="#fff" stop-opacity="0"/><stop offset="0.13" stop-color="#fff" stop-opacity="0.231"/><stop offset="0.23" stop-color="#fff" stop-opacity="0.412"/><stop offset="0.35" stop-color="#fff" stop-opacity="0.588"/><stop offset="0.48" stop-color="#fff" stop-opacity="0.741"/><stop offset="0.6" stop-color="#fff" stop-opacity="0.851"/><stop offset="0.72" stop-color="#fff" stop-opacity="0.929"/><stop offset="0.84" stop-color="#fff" stop-opacity="0.98"/><stop offset="0.95" stop-color="#fff"/></linearGradient></defs><g transform="translate(102.268 0.002)"><path class="a" d="M226.14,129.9q-.1,1.756-.261,3.493c-.831,8.644-2.893,17.131-5,25.545-4.187,16.728-8.969,34.155-20.364,46.646-13.732,15.026-34.666,20.147-54.474,20.851s-26.523,25.693-46.257,27.7c-19.995,2.047-52.709-18.77-72.777-19.523A76.86,76.86,0,0,1-1.735,227.82c-9.028-4.089-17.427-9.993-23.5-18.12-9.476-12.61-26.148,11.065-27.314-4.118-.118-1.489-20.434,1.46-20.748,0l7.78-20.518c-.089-.462-21.49.462-21.613,0-1.815-7.06,8.231-12.229,6.052-18.98-.384-1.2-10.1-5.889-10.374-7.149-.681-3.041-8.064-19.149-7.78-22.253.817-8.536,22.737-13.333,25.935-21.318,1.417-3.552-9.365-19.294-7.78-22.8,3.828-8.457,1.138-25.433,7.78-31.987,13.318-13.131,36.509-39.788,55.328-42.189S67.888,45.7,85.758,39.423c18.5-6.5,35-19.149,54.612-21.038,14.332-1.368,28.713,3.321,41.033,10.534,27.217,15.887,42.228,54.351,44.58,86.444A112.789,112.789,0,0,1,226.14,129.9Z" transform="translate(-3.03 -18.15)"/><ellipse class="b" cx="36.743" cy="7.026" rx="36.743" ry="7.026" transform="translate(-4.937 148.327)"/><ellipse class="c" cx="45.658" cy="8.994" rx="45.658" ry="8.994" transform="translate(92.922 144.391)"/><path class="d" d="M123.61,268.029a57.251,57.251,0,0,1-6.485-.615,6.225,6.225,0,0,0-1.653-.108,6.99,6.99,0,0,0-1.968.674,20.172,20.172,0,0,1-11.946,1.289,2.239,2.239,0,0,1-2.337-2.229,19.123,19.123,0,0,1-.084-3.862,5.156,5.156,0,0,1,.492-2.091,4.084,4.084,0,0,1,1.707-1.545c2.573-1.378,5.678-.984,8.6-.9,3.444.123,7.011-.172,10.332.772a10.026,10.026,0,0,1,5.948,4.285C127.728,266.233,126.591,268.147,123.61,268.029Z" transform="translate(-103.774 -140.262)"/><path class="e" d="M123.61,268.029a57.251,57.251,0,0,1-6.485-.615,6.225,6.225,0,0,0-1.653-.108,6.99,6.99,0,0,0-1.968.674,20.172,20.172,0,0,1-11.946,1.289,2.239,2.239,0,0,1-2.337-2.229,19.123,19.123,0,0,1-.084-3.862,5.156,5.156,0,0,1,.492-2.091,4.084,4.084,0,0,1,1.707-1.545c2.573-1.378,5.678-.984,8.6-.9,3.444.123,7.011-.172,10.332.772a10.026,10.026,0,0,1,5.948,4.285C127.728,266.233,126.591,268.147,123.61,268.029Z" transform="translate(-103.774 -140.262)"/><path class="f" d="M302.97,280.75l17.318,12.266,57.16.433-16.024-11.4Z" transform="translate(-205.861 -142.622)"/><path class="a" d="M316.17,281.71l13.328,9.441,43.975.335-12.33-8.772Z" transform="translate(-212.567 -143.11)"/><path class="g" d="M290.31,200.448s14.071-6.927,18.834-17.968l15.159,4.763s-16.236,21.648-22.519,22.3Z" transform="translate(-200.921 -101.631)"/><path class="g" d="M319.79,229.6c.866-.541,13.638-4.763,18.947-14.829l12.881,6.819s-12.664,17.107-24.034,17.648Z" transform="translate(-215.897 -118.034)"/><path class="f" d="M378.462,261.97l9.525,10.829-35.07,4.039L348.44,268.9Z" transform="translate(-228.96 -133.082)"/><path class="h" d="M358.753,287.659l22.73-4.389a4.923,4.923,0,0,0,3.242.984l4.02,4.659s-1.2,1.6-.517,2.588l-25.176,3.557a8.012,8.012,0,0,0-3.611-1.137l-2.952-4.3S359.162,289.336,358.753,287.659Z" transform="translate(-234.54 -152.832)"/><path class="f" d="M184.383,247.518l-.93-3.636c-.585-2.1-2.194-.271-4.152.674l-55.1,26.568a3.493,3.493,0,0,0-1.884,3.906l.708,3.144a3.469,3.469,0,0,0,1.269,1.993l9.186,7.095a3.488,3.488,0,0,0,4.3-.03l45.416-36.054A3.483,3.483,0,0,0,184.383,247.518Z" transform="translate(-115.535 -132.332)"/><path class="i" d="M184.383,247.518l-.93-3.636c-.585-2.1-2.194-.271-4.152.674l-55.1,26.568a3.493,3.493,0,0,0-1.884,3.906l.708,3.144a3.469,3.469,0,0,0,1.269,1.993l9.186,7.095a3.488,3.488,0,0,0,4.3-.03l45.416-36.054A3.483,3.483,0,0,0,184.383,247.518Z" transform="translate(-115.535 -132.332)"/><path class="f" d="M124.173,264.785l40.723-33.4a1.815,1.815,0,0,1,1.707-.32l16.31,5.284a1.811,1.811,0,0,1,.556,3.149l-46.174,36.034a1.811,1.811,0,0,1-2.18.034l-10.873-7.921a1.815,1.815,0,0,1-.069-2.863Z" transform="translate(-116.185 -126.269)"/><path class="j" d="M124.173,264.785l40.723-33.4a1.815,1.815,0,0,1,1.707-.32l16.31,5.284a1.811,1.811,0,0,1,.556,3.149l-46.174,36.034a1.811,1.811,0,0,1-2.18.034l-10.873-7.921a1.815,1.815,0,0,1-.069-2.863Z" transform="translate(-116.185 -126.269)"/><path class="a" d="M181.414,224.975l-1.122.876-40.019,31.178-11.995-7.921-.738-.492,35.788-29.486Z" transform="translate(-116.743 -111.319)"/><path class="k" d="M181.054,227.09l-40.019,31.178-11.995-7.921,34.942-28.777Z" transform="translate(-117.505 -112.559)"/><path class="f" d="M162.084,267.193l-12.994-6.74,3.985-3.5,12.994,6.735Z" transform="translate(-127.69 -130.532)"/><path class="l" d="M162.084,267.193l-12.994-6.74,3.985-3.5,12.994,6.735Z" transform="translate(-127.69 -130.532)"/><path class="f" d="M232.347,224.984l-1.417-.605a28.637,28.637,0,0,1,1.476-2.809l1.333.772a25.817,25.817,0,0,0-1.392,2.642Z" transform="translate(-170.756 -121.488)"/><path class="f" d="M241.44,201.522l-1.21-.95a35.733,35.733,0,0,1,3.764-4.113l1.048,1.127a33.923,33.923,0,0,0-3.6,3.936Zm7.8-7.178-.817-1.3a24.8,24.8,0,0,1,5.063-2.46l.492,1.476A23.66,23.66,0,0,0,249.243,194.344Zm15.163-3.311a23.737,23.737,0,0,0-5.274-.1l-.148-1.53a25.648,25.648,0,0,1,5.619.1Z" transform="translate(-175.48 -105.091)"/><path class="f" d="M302.774,194.754c-.94-.394-1.889-.748-2.824-1.048l.492-1.476c.984.315,1.968.684,2.952,1.1Z" transform="translate(-205.818 -106.584)"/><path class="f" d="M303.4,285.655l-.433-4.905,17.318,12.266,57.16.433-1.122,3.07-57.7.325Z" transform="translate(-205.861 -142.622)"/><path class="m" d="M303.4,285.655l-.433-4.905,17.318,12.266,57.16.433-1.122,3.07-57.7.325Z" transform="translate(-205.861 -142.622)"/><path class="d" d="M465.728,206.864c-.064,1.938-.172,3.872-.3,5.811-.059,1.107-.138,2.2-.231,3.306-.059.817-.212,1.771-.92,2.155a1.352,1.352,0,0,1-.31.123,3.872,3.872,0,0,1-1.043.044l-4.817-.32a24,24,0,0,0-4.718,0c-3.109.4-5.968,2-9.072,2.352a23.086,23.086,0,0,1-4.123-.03l-12.63-.831a9.191,9.191,0,0,1-3.164-.6,3.1,3.1,0,0,1-1.968-2.381c-.079-.758.212-1.51.152-2.278a.208.208,0,0,0,0-.094c-.216-2.047-2.908-3.7-2.091-5.6.182-.443.566-.827.581-1.3a1.874,1.874,0,0,0-.413-1.063,5.3,5.3,0,0,1-1.092-3.783c.216-.94.891-1.786.861-2.736-.044-1.092-.984-1.968-1.107-3.045a2.957,2.957,0,0,1,1.766-2.726,8.363,8.363,0,0,1,3.385-.566l6.061-.187a4.24,4.24,0,0,0,2.844-.782,3.257,3.257,0,0,0,.492-3.4c-.384-1.137-1.107-2.155-1.476-3.306a6.022,6.022,0,0,1,1.077-5.491,1.968,1.968,0,0,1,.782-.63c1.092-.4,2,.891,2.46,1.968a35.592,35.592,0,0,0,7.2,10.642,28.3,28.3,0,0,0,13.84,7.38c1.52.335,3.734.123,5.491.369a4.634,4.634,0,0,1,1.476.413C466.742,201.265,465.787,205.092,465.728,206.864Z" transform="translate(-266.456 -100.081)"/><path class="d" d="M530.494,230.253c0,.4-.049.8-.079,1.2-.044.767-.108,1.54-.182,2.293a5.486,5.486,0,0,1-1.215,2c-1.387,1.353-3.444,1.476-5.309,1.476q-8.949.118-17.9-.492a9.073,9.073,0,0,1-.91-.079,4.836,4.836,0,0,1-2.288-.768c-1.432-1.033-1.815-3.031-2.076-4.831-.526-3.474-1.048-7.075-.216-10.489a3.861,3.861,0,0,1,.354-1.028,2.14,2.14,0,0,1,.645-.831,3.085,3.085,0,0,1,1.737-.413h1.156c4.364-.049,8.733.384,13.1.29a35.281,35.281,0,0,0,7.291-.831c1.166-.261,4.1-1.924,5.717-2.047A112.81,112.81,0,0,1,530.494,230.253Z" transform="translate(-307.385 -118.506)"/><path class="n" d="M492.7,235.408c-.044.768-.108,1.54-.182,2.293a5.486,5.486,0,0,1-1.215,2c-1.387,1.353-3.444,1.476-5.309,1.476q-8.95.118-17.9-.492a9.074,9.074,0,0,1-.91-.079,3.873,3.873,0,0,1-1.043.044l-4.817-.32a24,24,0,0,0-4.718,0c-3.109.4-5.968,2-9.072,2.352a23.092,23.092,0,0,1-4.123-.03l-12.63-.831a9.19,9.19,0,0,1-3.164-.6,3.1,3.1,0,0,1-1.968-2.381c-.079-.758.212-1.51.153-2.278a.207.207,0,0,0,0-.093c2.612,2.278,6.44,2.293,9.933,2.184,6.061-.182,12.167-.369,18.042-1.86a5.245,5.245,0,0,1,.861-5.412c.551-.63,1.26-1.107,1.86-1.688,1.274-1.264,2-2.952,3.169-4.339a5.058,5.058,0,0,1,3.291-1.86,2.873,2.873,0,0,1,1.427.261c1.85.891,2.032,3.414,1.924,5.461s-.044,4.521,1.737,5.55a2.917,2.917,0,0,0,.6.261,7.589,7.589,0,0,0,2.061.261c5.584.143,11.168.123,16.762-.03a33.075,33.075,0,0,1,5.23.153Z" transform="translate(-269.665 -122.461)"/><path class="d" d="M86.054,243.173a26.622,26.622,0,0,1,9.983.492,22.913,22.913,0,0,1,6.824,3.228,39.094,39.094,0,0,1,13.284,15.134c.448.915.772,2.214-.069,2.79-.723.492-1.683,0-2.4-.492-3.134-2.145-13.623-12.792-21.131-9.323-.207,1.614,1.879,4.807,2.13,6.4a3.313,3.313,0,0,1-2.3,3.321,9.378,9.378,0,0,1-4.315.231c-4.152-.433-8.29.03-12.467-.069-9.751-.221-15.818-7.242-15.252-10.9C60.859,250.951,68.519,245.342,86.054,243.173Z" transform="translate(-84.078 -132.331)"/><path class="f" d="M336.41,254.937l26.848-8.807,8.659,10.824-30.524,7.365Z" transform="translate(-222.849 -125.035)"/><path class="g" d="M39.943,262.925a13.525,13.525,0,0,1-2.244,5.151,7.96,7.96,0,0,0-3.8.153,26.692,26.692,0,0,0-5.412,2.386,131.319,131.319,0,0,1-12.826,6.042c-.812.339-1.658.664-2.519.94a79.481,79.481,0,0,0-4.615-12.2,81.273,81.273,0,0,1-3.031-7.719c-.384-1.2-.738-2.416-1.014-3.675,7.041-2.893,18.46-.753,24.438-2a46.307,46.307,0,0,0,4.979-1.427A37.532,37.532,0,0,1,39.22,249.1C40.081,253.621,40.883,258.556,39.943,262.925Z" transform="translate(-55.719 -135.474)"/><path class="o" d="M44.134,277.2a13.525,13.525,0,0,1-2.244,5.151c-3.183-.708-6.337.984-9.2,2.539a131.3,131.3,0,0,1-12.826,6.042c-.812.34-1.658.664-2.519.94a79.481,79.481,0,0,0-4.615-12.2,21.6,21.6,0,0,0,8.5,1.171c4.152-.187,8.211-1.2,12.3-1.968C37.045,278.184,40.6,277.692,44.134,277.2Z" transform="translate(-59.91 -149.748)"/><path class="p" d="M315.2,186.68l7.414,2.49s-.984,2.327.216,3.41c0,0-8.5,12.5-15.641,15.532,0,0-1.028-1.137-4.275-.812l-5.092-3.842s1.9-.92,1.476-2.381c0,0,10.229-5.2,13.043-12.123C312.329,188.953,315.2,189.386,315.2,186.68Z" transform="translate(-204.736 -103.764)"/><path class="q" d="M344.5,221.08l6.258,3.016s-1.117,1.968-.182,3.036c0,0-8.886,10.115-15.532,12,0,0-.787-1.117-3.69-1.186l-4.074-3.936s1.776-.605,1.555-1.968c0,0,9.609-3.444,12.861-9.274C341.715,222.772,344.2,223.471,344.5,221.08Z" transform="translate(-219.702 -121.24)"/><path class="r" d="M347.412,275.583l18.839-5.953a3.715,3.715,0,0,0,2.814.649l3.788,4.221s-.866,1.732-.216,2.6l-20.964,5.378a5.86,5.86,0,0,0-3.144-.758l-2.849-3.97S347.9,277.192,347.412,275.583Z" transform="translate(-229.049 -145.903)"/><path class="s" d="M70.317,262.925a13.525,13.525,0,0,1-2.244,5.151,7.96,7.96,0,0,0-3.8.153V250.576a37.532,37.532,0,0,1,5.323-1.476C70.454,253.621,71.256,258.556,70.317,262.925Z" transform="translate(-86.092 -135.474)"/><rect class="f" width="7.685" height="20.27" rx="3.72" transform="translate(189.466 98.341) rotate(4.12)"/><rect class="t" width="7.685" height="20.27" rx="3.72" transform="translate(189.466 98.341) rotate(4.12)"/><circle class="f" cx="6.332" cy="6.332" r="6.332" transform="translate(185.915 102.512)"/><circle class="u" cx="6.332" cy="6.332" r="6.332" transform="translate(185.915 102.512)"/><circle class="f" cx="5.427" cy="5.427" r="5.427" transform="translate(186.776 103.457)"/><circle class="v" cx="5.427" cy="5.427" r="5.427" transform="translate(186.776 103.457)"/></g></svg>