<svg xmlns="http://www.w3.org/2000/svg" width="94.42" height="86" viewBox="0 0 94.42 86"><defs><style>.a{fill:#19cffc;}.b{fill:#2864f0;}.c{fill:#3389ff;}</style></defs><g transform="translate(0 -23.2)"><g transform="translate(0 31.747)"><path class="a" d="M46.782,74.032H32.766a2.766,2.766,0,0,1,0-5.532H46.782a2.766,2.766,0,0,1,0,5.532Z" transform="translate(-24.468 -68.5)"/><path class="a" d="M46.782,194.032H32.766a2.766,2.766,0,1,1,0-5.532H46.782a2.766,2.766,0,1,1,0,5.532Z" transform="translate(-24.468 -166.37)"/><path class="a" d="M16.782,134.032H2.766a2.766,2.766,0,0,1,0-5.532H16.782a2.766,2.766,0,0,1,0,5.532Z" transform="translate(0 -117.435)"/></g><g transform="translate(2.951 27.598)"><path class="b" d="M174.815,46.934a5.534,5.534,0,0,0-6.98.692L152.621,62.839a5.532,5.532,0,1,0,7.823,7.823l12.008-12.008,8.592,6.189L192.8,59.382Z" transform="translate(-126.104 -46.005)"/><path class="b" d="M53.581,242.289,17.621,278.25a5.532,5.532,0,0,0,7.823,7.823l32.049-32.049Z" transform="translate(-16 -206.092)"/></g><g transform="translate(36.145 23.2)"><path class="c" d="M248.742,130.131H231.96V119.066a5.536,5.536,0,0,0-9.446-3.91l-22.128,22.128a5.53,5.53,0,0,0,0,7.823l12.686,12.686-15.452,15.452a5.532,5.532,0,0,0,7.823,7.823L224.807,161.7a5.53,5.53,0,0,0,0-7.823L212.122,141.2l8.774-8.774v3.242a5.533,5.533,0,0,0,5.532,5.532h22.314a5.532,5.532,0,1,0,0-11.065Z" transform="translate(-196 -96.689)"/><ellipse class="c" cx="8" cy="8.5" rx="8" ry="8.5" transform="translate(35.855 0)"/></g></g></svg>