<svg xmlns="http://www.w3.org/2000/svg" width="90" height="105.686" viewBox="0 0 90 105.686"><defs><style>.a{fill:#00dd80;}.b{fill:#00aa63;}.c{fill:#fff;}.d{fill:#e1ebf0;}.e{fill:#b4d2d7;}.f{fill:#6fa5aa;}</style></defs><g transform="translate(-0.5 0)"><path class="a" d="M85.746,70.577A53.32,53.32,0,0,1,72.975,90.471c-6.413,6.262-14.81,11.238-24.958,14.787a7.636,7.636,0,0,1-2.425.428H45.5a7.744,7.744,0,0,1-1.488-.147,8.062,8.062,0,0,1-1.023-.279C32.829,101.717,24.421,96.744,18,90.482A53.219,53.219,0,0,1,5.234,70.591C.076,56.594.369,41.173.606,28.782l0-.19c.048-1.023.078-2.1.1-3.285A11.2,11.2,0,0,1,11.252,14.333C23.4,13.655,32.8,9.692,40.835,1.864l.07-.065a6.77,6.77,0,0,1,9.191,0l.069.065C58.2,9.692,67.6,13.655,79.75,14.333A11.2,11.2,0,0,1,90.3,25.307c.017,1.195.048,2.268.1,3.285l0,.081C90.631,41.087,90.923,56.538,85.746,70.577Zm0,0" transform="translate(0 0)"/><path class="b" d="M259.1,70.58a53.32,53.32,0,0,1-12.771,19.894c-6.413,6.262-14.81,11.238-24.958,14.787a7.636,7.636,0,0,1-2.425.428V0a6.78,6.78,0,0,1,4.5,1.8l.069.065c8.033,7.829,17.434,11.792,29.585,12.47A11.2,11.2,0,0,1,263.655,25.31c.017,1.195.048,2.268.1,3.285l0,.081C263.988,41.09,264.28,56.541,259.1,70.58Zm0,0" transform="translate(-173.357 -0.003)"/><path class="c" d="M143.574,154.737a26.372,26.372,0,0,1-26.247,26.34h-.093a26.34,26.34,0,1,1,0-52.679h.093A26.372,26.372,0,0,1,143.574,154.737Zm0,0" transform="translate(-71.735 -101.894)"/><path class="d" d="M245.2,154.737a26.372,26.372,0,0,1-26.247,26.34V128.4A26.372,26.372,0,0,1,245.2,154.737Zm0,0" transform="translate(-173.357 -101.894)"/><path class="e" d="M179.41,217.273l-11.863,11.864-2.563,2.563a3.1,3.1,0,0,1-4.387,0l-5.511-5.514a3.1,3.1,0,0,1,4.385-4.385l3.32,3.32,12.234-12.234a3.1,3.1,0,0,1,4.385,4.385Zm0,0" transform="translate(-121.956 -168.223)"/><path class="f" d="M230.812,217.273l-11.863,11.864v-8.772l7.478-7.477a3.1,3.1,0,0,1,4.385,4.385Zm0,0" transform="translate(-173.357 -168.223)"/></g></svg>